<svg xmlns="http://www.w3.org/2000/svg" width="1025" height="303" viewBox="0 0 1025 303" fill="none"><path d="M481.14 302.78C477.26 301.23 474.84 298.48 474.2 294.28C474.15 293.95 474.04 293.55 474.16 293.28C474.36 292.86 474.74 292.52 475.04 292.15C475.32 292.51 475.82 292.85 475.86 293.23C476.06 295.02 476.86 296.43 478.09 297.7C480.07 299.74 482.47 299.33 484.8 298.84C490.6 297.6 494.66 293.81 498.01 289.25C503.86 281.28 507.95 272.34 511.83 263.31C514.29 257.59 516.63 251.81 519.02 246.06C516.17 245.74 513.43 245.45 510.7 245.12C510.2 245.06 509.62 245.01 509.23 244.74C508.54 244.26 507.48 243.63 507.46 243.02C507.43 242.26 508.12 241.25 508.8 240.75C509.46 240.27 510.49 240.12 511.36 240.12C514.2 240.12 517.05 240.2 519.88 240.35C521.07 240.42 521.66 240.04 522.17 238.92C525.03 232.66 528.09 226.5 532.53 221.17C534.04 219.36 535.78 217.64 537.71 216.28C542.44 212.96 546.99 214.69 550.37 218.23C551.4 219.31 551.54 222.03 550.7 223.22C550.09 224.09 549.3 224.59 548.29 223.69C544.96 220.77 541.71 220.8 538.45 223.83C537.62 224.6 536.78 225.42 536.2 226.37C533.48 230.86 530.85 235.41 528.04 240.17H547.14C547.2 240.31 547.26 240.44 547.31 240.58C546.66 240.88 546.05 241.32 545.37 241.46C539.87 242.59 534.37 243.77 528.83 244.7C526.73 245.05 525.53 245.83 524.6 247.85C518.78 260.43 512.27 272.64 505.13 284.52C501.65 290.3 497.67 295.73 491.96 299.49C489.74 300.95 487.05 301.69 484.57 302.75H481.16L481.14 302.78Z" fill="#992866"></path><path d="M0.149902 267.31H101.08V273.75C100.6 273.79 100.11 273.86 99.6201 273.86C66.8601 273.86 34.1001 273.86 1.33008 273.86C0.930078 273.86 0.540137 273.81 0.140137 273.79C0.140137 271.63 0.140137 269.47 0.140137 267.31H0.149902Z" fill="#992866"></path><path d="M797.11 22.63C777.31 68.33 757.51 114.02 737.5 160.19C717.24 114.22 697.15 68.6401 676.89 22.6701C676.76 23.3901 676.65 23.7302 676.65 24.0602C676.65 61.7502 676.66 99.4303 676.72 137.12C676.72 139.66 677.08 142.22 677.48 144.73C678.41 150.43 681.63 154.54 686.8 157.48H655.44C656.79 156.49 658.31 155.48 659.7 154.32C663.3 151.32 664.62 147.18 665.1 142.73C665.42 139.8 665.57 136.84 665.57 133.89C665.6 96.4903 665.61 59.0803 665.56 21.6803C665.56 18.5203 665.24 15.3301 664.81 12.1901C664.1 7.11008 660.96 3.73024 656.6 1.35024C656.07 1.06024 655.52 0.810395 655.02 0.260395C655.55 0.260395 656.09 0.260395 656.62 0.260395C665.44 0.260395 674.26 0.300356 683.07 0.220356C684.43 0.210356 685.04 0.650005 685.57 1.86C703.66 43.19 721.78 84.5002 739.9 125.81C740.17 126.43 740.47 127.03 740.88 127.92C741.27 127.13 741.58 126.57 741.84 125.98C759.65 84.7201 777.46 43.4601 795.22 2.17006C795.85 0.710063 796.59 0.190337 798.21 0.200337C806.34 0.290337 814.48 0.240376 822.74 0.240376C821.29 1.43038 819.84 2.44006 818.61 3.67006C815.78 6.51006 814.78 10.1802 814.35 14.0202C814.1 16.2202 813.97 18.44 813.97 20.65C813.95 59.99 813.95 99.3203 814 138.66C814 141.26 814.32 143.88 814.76 146.45C815.59 151.32 818.26 154.97 822.92 157.5H789.15C795.54 153.7 796.91 147.63 797.25 141.11C797.42 137.76 797.47 134.41 797.47 131.05C797.49 95.5204 797.47 59.9904 797.47 24.4704V22.65C797.34 22.63 797.21 22.6202 797.08 22.6002L797.11 22.63Z" fill="#992866"></path><path d="M338.89 157.46C345.19 153.99 347.2 148.29 347.63 141.78C347.81 139.06 347.93 136.33 347.93 133.6C347.95 96.9401 347.96 60.2699 347.92 23.6099C347.92 20.3199 347.66 17.03 347.35 13.75C346.81 8.04 344.26 3.50018 338.92 0.430176C339.37 0.350176 339.55 0.290039 339.74 0.290039C355.61 0.380039 371.48 0.390098 387.35 0.600098C395.29 0.710098 403.08 1.95994 410.51 4.93994C424.52 10.5699 433.32 24.8599 432.56 39.9399C431.61 58.6799 418.63 73.3602 401.43 77.6802C400.9 77.8102 400.39 77.9903 399.5 78.2603C402.46 78.9103 405.07 79.3601 407.62 80.0801C419.49 83.4101 429.37 89.6 435.62 100.54C439.95 108.1 440.21 116.34 438.67 124.71C436.54 136.3 429.52 144.23 419.54 149.86C411.67 154.3 403.09 156.75 394.17 157.01C375.98 157.54 357.78 157.47 339.58 157.63C339.43 157.63 339.28 157.55 338.9 157.45L338.89 157.46ZM364.47 148.49C364.98 148.51 365.37 148.55 365.75 148.55C372.63 148.55 379.52 148.75 386.39 148.48C390.85 148.3 395.37 147.83 399.7 146.8C407.26 145 413.52 141.03 417.32 133.95C420.24 128.51 421.01 122.58 421.13 116.49C421.43 100.64 410.87 85.2001 391.77 84.1401C382.87 83.6501 373.93 83.72 365.01 83.54C364.86 83.54 364.7 83.64 364.48 83.71V148.49H364.47ZM364.53 9.12012V74.3301C371.66 74.3301 378.66 74.51 385.65 74.29C396.54 73.94 404.87 68.8099 410.6 59.6899C416.03 51.0299 416.84 41.6203 414.26 31.8203C411.08 19.7103 401.67 11.8803 389.83 10.2803C381.54 9.16027 373.06 9.45988 364.54 9.12988L364.53 9.12012Z" fill="#992866"></path><path d="M482.39 0.320312H515.92C514.52 1.71031 512.87 3.00012 511.66 4.62012C508.72 8.55012 507.83 13.22 507.8 17.98C507.7 37.02 507.72 56.0699 507.71 75.1099C507.71 85.9699 507.57 96.8302 507.85 107.68C508.07 116.46 509.94 124.91 514.56 132.56C519.86 141.33 527.65 146.59 537.62 148.62C548.21 150.78 558.68 150.56 568.7 146.06C577.23 142.23 583.12 135.76 586.64 127.11C589.74 119.5 590.53 111.5 590.53 103.39C590.55 76.3301 590.55 49.27 590.51 22.21C590.51 19.26 590.38 16.2799 589.91 13.3799C589.04 7.96988 586.76 3.33014 581.41 0.390137H612.68C609.68 1.86014 607.86 3.85004 606.43 6.29004C604.04 10.37 603.57 14.8702 603.4 19.4302C603.29 22.5002 603.36 25.5701 603.36 28.6401C603.36 53.2501 603.36 77.87 603.36 102.48C603.36 112.81 601.88 122.85 597.33 132.26C590.91 145.54 580.5 154.15 566.37 158.01C552.43 161.82 538.38 161.43 524.7 156.81C509.41 151.65 499.46 140.97 494.42 125.66C491.89 117.95 491.21 110 491.2 101.96C491.18 75.64 491.2 49.32 491.17 23C491.17 19.82 491.07 16.62 490.61 13.48C489.84 8.14998 487.74 3.47029 482.39 0.300293V0.320312Z" fill="#992866"></path><path d="M119.67 0.280273C120.22 0.280273 120.78 0.280273 121.33 0.280273C135.04 0.280273 148.75 0.260273 162.45 0.280273C171.11 0.290273 179.7 0.780254 188.1 3.26025C204.1 7.98025 214.96 21.0002 216.64 37.6602C217.87 49.8602 215.32 61.0603 207.67 70.8203C200.67 79.7603 191.2 84.7302 180.3 87.2002C168.95 89.7702 157.59 88.98 146.25 87.04C145.81 86.96 145.36 86.9201 144.72 86.8301C144.68 87.4501 144.62 87.98 144.61 88.52C144.61 104.6 144.57 120.69 144.63 136.77C144.65 141.66 144.94 146.54 147.34 151.01C148.76 153.66 150.55 155.95 153.79 157.5H119.81C122.18 156.09 123.92 154.12 125.27 151.74C127.33 148.11 127.78 144.12 128.07 140.09C128.16 138.79 128.15 137.48 128.15 136.17C128.15 98.3199 128.17 60.4701 128.13 22.6201C128.13 19.6801 127.92 16.71 127.52 13.79C126.76 8.30004 124.55 3.58025 119.66 0.260254L119.67 0.280273ZM144.61 9.62988V11.6001C144.61 32.9101 144.61 54.2203 144.61 75.5303C144.61 75.9803 144.49 76.4899 144.65 76.8799C144.83 77.2999 145.22 77.8799 145.6 77.9399C154.72 79.3799 163.88 80.52 173.08 78.98C184.06 77.14 192.1 71.2799 196.53 60.8999C199.47 54.0199 199.76 46.8102 198.88 39.4902C196.94 23.3102 184.21 10.9101 167.95 9.83008C160.42 9.33008 152.83 9.5502 145.27 9.4502C145.11 9.4502 144.95 9.53012 144.61 9.62012V9.62988Z" fill="#992866"></path><path d="M905.81 157.55H872.32C873.86 155.75 875.66 153.99 877.05 151.94C879.35 148.55 879.92 144.58 880.19 140.58C880.3 138.88 880.3 137.17 880.3 135.47C880.3 97.8402 880.32 60.2103 880.27 22.5703C880.27 19.2303 880.04 15.8603 879.53 12.5703C878.74 7.49031 876.49 3.19992 871.45 0.419922H905.36C904.05 1.64992 902.41 2.86014 901.17 4.39014C898.11 8.17014 897.21 12.74 896.94 17.46C896.84 19.1 896.83 20.7599 896.83 22.3999C896.83 59.9799 896.81 97.5499 896.86 135.13C896.86 138.64 897.07 142.19 897.67 145.64C898.53 150.55 900.86 154.71 905.81 157.56V157.55Z" fill="#992866"></path><path d="M290.54 157.54H256.37C263.06 153.17 264.56 146.62 264.97 139.57C265.05 138.15 265.04 136.73 265.04 135.31C265.04 97.7901 265.06 60.2703 265.02 22.7603C265.02 19.5903 264.81 16.39 264.37 13.25C263.62 7.93 261.44 3.36992 256.18 0.419922H290.18C290.18 0.419922 290.23 0.600117 290.2 0.620117C284.41 4.01012 282.43 9.54025 281.81 15.7603C281.55 18.3603 281.5 20.9798 281.5 23.5898C281.48 60.5398 281.47 97.4899 281.52 134.44C281.52 138.06 281.71 141.73 282.31 145.3C283.16 150.37 285.47 154.72 290.54 157.54Z" fill="#992866"></path><path d="M200.07 239.63C197.19 239.86 193.79 237.02 193.02 233.39C191.75 227.43 193.73 222.38 197.63 218.02C203.81 211.09 211.66 206.72 220.39 203.89C235.09 199.12 250.12 198.01 265.36 200.5C271.02 201.42 276.44 203.32 280.53 207.64C286.85 214.33 285.57 226.01 278.04 231.83C272.43 236.16 265.85 237.72 259.03 238.65C257.62 238.84 256.21 238.94 254.28 239.13C258.09 239.72 261.18 240.81 263.77 243.03C270.12 248.49 271.65 257.84 267.44 265.21C264.01 271.22 258.79 275.21 252.74 278.25C244.01 282.64 234.75 284.61 225.02 283.95C217.61 283.44 210.85 281.19 205.91 275.19C204.98 274.06 204.21 272.79 203.22 271.39C202.49 271.98 201.8 272.62 201.02 273.14C197.23 275.63 193.58 278.4 189.58 280.49C184.39 283.2 181.3 280.32 180.77 275.01C180.3 270.35 181.57 265.92 183.73 261.88C185.97 257.69 188.55 253.66 191.29 249.78C192.26 248.39 193.98 247.31 195.59 246.64C198.39 245.49 200.47 246.4 201.77 249.15C202.68 251.09 203.28 253.18 203.96 255.22C204.81 257.79 205.6 260.38 206.53 263.34C209.05 260.21 211.4 257.39 213.65 254.48C222 243.7 230.2 232.79 238.71 222.14C241.81 218.26 245.55 214.86 249.17 211.42C251.46 209.24 254.42 208.49 257.56 209.01C258.58 209.18 259.65 209.65 260.46 210.28C262.03 211.52 261.75 213.58 259.83 214.13C257.07 214.92 255.01 216.69 253.04 218.54C247.1 224.09 241.07 229.57 235.49 235.47C231.69 239.5 228.63 244.23 225.18 248.6C219.96 255.21 214.43 261.55 208.13 267.13C212.71 277.09 221.53 283.08 233.37 281.19C244.92 279.34 254.01 273.26 259.84 263.01C265.11 253.76 259.32 242.51 248.75 240.95C245.94 240.54 243.11 240.2 240.32 239.69C239.11 239.47 237.34 239.36 237.45 237.66C237.56 236.03 239.21 235.5 240.61 235.32C241.7 235.18 242.99 235.2 243.94 235.66C247.84 237.54 251.93 237.23 255.99 236.92C261.32 236.52 266.41 235.2 270.94 232.22C277.67 227.78 280.29 217.45 276.32 210.74C274.14 207.05 270.52 205.22 266.62 203.96C261.99 202.47 257.2 201.84 252.34 201.84C241.03 201.84 230 203.44 219.58 208.02C211.46 211.59 204.67 216.9 199.38 224.06C197.15 227.08 195.48 230.39 196.84 234.19C197.55 236.18 199.01 237.91 200.05 239.63H200.07ZM184.66 272.67C184.83 273.51 185.05 275.2 185.52 276.81C186.04 278.59 187.01 279.05 188.78 278.43C189.73 278.1 190.71 277.66 191.48 277.03C194.8 274.28 198.05 271.46 201.28 268.62C201.55 268.39 201.67 267.72 201.55 267.36C200.31 263.72 199.07 260.07 197.68 256.48C197.16 255.13 196.34 253.85 195.47 252.68C194.52 251.41 193.73 251.5 192.85 252.83C191.67 254.63 190.46 256.42 189.42 258.3C187.07 262.52 184.94 266.84 184.65 272.67H184.66Z" fill="#992866"></path><path d="M714.73 264.86C712.16 269.8 709.8 274.31 707.45 278.82C703.93 278.03 702.34 275.57 703.64 272.34C705 268.99 706.56 265.68 708.4 262.57C716.16 249.46 724.57 236.77 734.2 224.93C735.41 223.44 736.87 222.14 738.18 220.72C739.62 219.16 741.43 219.22 743.24 219.62C744.93 219.99 745.34 221.11 744.27 222.48C740.82 226.92 737.31 231.32 733.8 235.72C731.82 238.2 729.81 240.66 728 243.38C729.88 242.55 731.7 241.52 733.65 240.92C737.05 239.88 740.49 238.78 743.99 238.29C748.12 237.72 752.12 240.72 753.28 244.75C754.07 247.52 752.87 249.89 751.34 252.06C749.01 255.38 745.56 257.26 742 258.99C737.26 261.29 732.29 262.12 727.08 261.42C725.81 261.25 724.57 260.74 723.34 260.34C722.15 259.96 721.34 260.41 721.59 261.49C722.53 265.54 723.61 269.57 726.24 272.91C729.19 276.66 732.99 277.32 737.68 275.01C742.22 272.78 746.13 269.68 749.72 266.16C751.42 264.49 753.01 262.7 754.65 260.97C755.08 260.51 755.42 259.95 755.92 259.6C756.56 259.15 757.32 258.87 758.03 258.51C757.83 259.31 757.87 260.32 757.4 260.88C753.02 266.05 748.5 271.1 742.87 274.97C740.5 276.6 737.98 278.17 735.3 279.13C729.58 281.17 724.61 279.52 720.82 274.86C719.04 272.68 717.69 270.14 716.19 267.74C715.71 266.98 715.37 266.14 714.72 264.85L714.73 264.86ZM718.27 258.22C721.44 258.22 724.43 258.6 727.27 258.14C732.84 257.24 737.81 254.64 742.42 251.48C744.02 250.38 745.42 248.88 746.62 247.33C747.65 245.99 748.38 244.29 747.35 242.58C746.32 240.88 744.6 240.77 742.82 241C742.26 241.07 741.69 241.12 741.13 241.24C733.96 242.81 727.74 246.16 722.53 251.3C720.62 253.18 719.07 255.33 718.26 258.22H718.27Z" fill="#992866"></path><path d="M844.66 258.13C844.24 259.21 844.05 260.5 843.35 261.35C838.41 267.32 833.07 272.91 826.52 277.17C825.29 277.97 823.72 278.51 822.26 278.65C818.69 278.98 816.58 277 816.34 273.4C816.04 268.9 817.23 264.69 819.35 260.81C821.8 256.33 824.54 252.01 827.16 247.62C827.47 247.1 827.77 246.57 828.07 246.04C827.94 245.91 827.8 245.78 827.67 245.65C823.82 249.21 819.72 252.53 816.19 256.37C810.96 262.05 806.14 268.1 801.14 273.99C800.11 275.2 799.13 276.46 798.04 277.62C796.84 278.89 795.62 278.81 794.42 277.51C793.05 276.04 792.71 274.25 793.31 272.43C794.49 268.83 795.83 265.28 797.12 261.72C797.37 261.04 797.7 260.39 797.75 259.55C796.99 260.31 796.22 261.06 795.47 261.84C793.66 263.72 791.89 265.65 790.03 267.49C789.41 268.1 788.75 269.27 787.71 268.36C787.5 268.17 788.07 266.74 788.58 266.14C791.81 262.33 795.18 258.63 798.41 254.83C801.76 250.89 805.01 246.87 808.31 242.89C808.64 242.5 808.97 242.1 809.37 241.79C810.52 240.87 812.31 240.88 813.31 241.76C814.26 242.59 814.3 244.13 813.38 245.48C811.35 248.49 809.16 251.41 807.3 254.52C805.33 257.82 803.64 261.3 801.87 264.73C801.57 265.32 801.43 265.99 801.22 266.62C801.4 266.78 801.58 266.94 801.76 267.1C802.08 266.6 802.32 266.02 802.74 265.63C809.9 258.98 817.03 252.29 824.3 245.76C826.35 243.92 828.74 242.37 831.18 241.07C832.64 240.29 834.52 239.91 836.18 240C838.9 240.14 839.78 242.34 838.14 244.6C836.14 247.35 833.9 249.94 831.89 252.69C829.19 256.4 826.46 260.12 824.03 264.01C822.41 266.61 821.34 269.53 821.5 272.72C821.62 275.18 822.47 275.8 824.78 274.92C828.69 273.42 831.75 270.66 834.66 267.79C837.53 264.96 840.19 261.92 842.94 258.97C843.28 258.6 843.62 258.23 843.96 257.86C844.2 257.95 844.43 258.05 844.67 258.14L844.66 258.13Z" fill="#992866"></path><path d="M399.65 265.37C397.23 267.44 394.78 269.47 392.4 271.58C388.86 274.72 385.31 277.81 380.7 279.32C376.52 280.69 373.52 279.08 373.14 274.74C372.95 272.52 373.63 270.18 374.15 267.94C374.44 266.7 375.16 265.54 375.77 264.39C376.38 263.24 377.08 262.15 377.53 260.79C376.84 261.44 376.13 262.06 375.46 262.73C374.7 263.49 374 264.32 373.22 265.07C372.53 265.73 371.76 266.31 371.02 266.93C370.79 266.75 370.55 266.56 370.32 266.38C370.84 265.49 371.25 264.51 371.9 263.73C375.77 259.11 379.69 254.53 383.61 249.96C385.35 247.94 387.11 245.93 388.93 243.97C390.3 242.51 392.05 241.58 394.05 241.59C395.07 241.59 396.42 241.93 397.01 242.64C397.82 243.61 397.04 244.72 396.17 245.6C389.71 252.16 384.23 259.46 379.97 267.62C378.86 269.74 378.13 272.13 377.67 274.49C377.27 276.52 378.29 277.17 380.31 276.55C384.27 275.33 387.61 272.99 390.35 270.02C395.24 264.72 399.84 259.16 404.59 253.73C407.73 250.14 410.88 246.56 414.13 243.07C415.33 241.79 416.76 240.78 418.79 241.09C421.19 241.46 422.75 244.03 421.02 246.14C417.42 250.54 413.73 254.87 410.37 259.44C407.93 262.76 405.83 266.35 403.86 269.97C403.18 271.22 403.16 272.93 403.18 274.42C403.2 275.8 404.3 276.57 405.57 275.96C408.06 274.76 410.71 273.64 412.77 271.88C417.29 268 421.47 263.73 425.8 259.63C426.45 259.02 426.99 257.78 428.08 258.6C428.3 258.77 427.8 260.39 427.25 261C422.02 266.85 416.72 272.64 410.08 276.98C407.49 278.68 404.8 279.89 401.59 278.89C398.78 278.01 397.29 276.09 397.55 273.18C397.73 271.16 398.27 269.17 398.68 267.17C398.85 266.35 399.1 265.55 399.31 264.74C399.42 264.93 399.53 265.13 399.64 265.32L399.65 265.37Z" fill="#992866"></path><path d="M563.87 265.1C561.11 267.73 558.19 270.66 555.11 273.41C552.26 275.95 549.17 278.16 545.45 279.35C541.14 280.74 538.11 278.72 537.8 274.18C537.51 269.98 539.41 266.48 541.36 263C541.86 262.11 542.45 261.28 543.18 260.14C540.16 262.06 538.71 265.37 535.71 266.79C535.53 266.66 535.36 266.52 535.18 266.39C535.53 265.68 535.75 264.87 536.25 264.28C541.76 257.77 547.29 251.28 552.86 244.82C554.46 242.96 556.46 241.58 559 241.57C559.96 241.57 561.25 241.94 561.81 242.61C562.64 243.61 561.88 244.69 561.01 245.57C554.59 252.09 549.14 259.34 544.88 267.44C543.79 269.52 543 271.82 542.47 274.11C541.94 276.38 543.16 277.43 545.23 276.45C548.02 275.13 550.86 273.67 553.23 271.72C559.91 266.23 564.87 259.15 570.36 252.56C573.19 249.16 576.26 245.95 579.31 242.75C580.56 241.43 582.12 240.69 584.09 241.2C586.06 241.71 587.46 244.16 585.95 245.98C583.09 249.44 580.21 252.89 577.51 256.47C574.84 260 572.22 263.58 569.89 267.33C568.82 269.05 568.24 271.2 567.93 273.23C567.55 275.73 568.9 276.77 571.17 275.74C573.47 274.7 575.82 273.47 577.7 271.82C582.14 267.93 586.31 263.73 590.59 259.67C591.25 259.05 591.77 257.84 592.87 258.61C593.08 258.75 592.6 260.39 592.06 261C586.82 266.85 581.53 272.64 574.89 276.99C572.35 278.65 569.72 279.88 566.57 278.96C563.62 278.1 562.07 276.22 562.39 273.21C562.69 270.36 563.4 267.55 563.86 265.07L563.87 265.1Z" fill="#992866"></path><path d="M374.49 254.86C374.27 255.62 374.23 256.52 373.79 257.12C369.08 263.55 364.24 269.87 357.82 274.73C356.35 275.85 354.67 276.8 352.95 277.47C348.5 279.2 343.7 276.18 343.22 271.42C343.05 269.75 343.19 268.06 343.19 266.22C340.5 268.79 337.92 271.4 335.17 273.83C333.44 275.36 331.54 276.75 329.57 277.95C326.15 280.04 322.92 279.09 319.91 276.89C316.88 274.68 316.49 271.6 317.15 268.2C317.97 264.02 320.08 260.46 322.69 257.2C328.1 250.46 334.15 244.37 342.03 240.55C344.57 239.32 347.5 238.73 350.32 238.28C353.22 237.82 355.95 238.56 356.89 242.41C356.94 242.62 357.1 242.8 357.25 243.08C358.94 242.57 360.49 242.72 361.73 244.13C362.49 244.99 362.71 245.79 361.99 246.85C359.26 250.9 356.48 254.92 353.94 259.09C351.97 262.32 350.16 265.68 348.62 269.14C348.04 270.45 348.17 272.24 348.45 273.73C348.71 275.1 350.03 275.78 351.39 275.26C353.06 274.62 354.92 273.99 356.17 272.8C360.74 268.47 365.11 263.93 369.5 259.43C370.65 258.25 371.6 256.89 372.66 255.63C373 255.23 373.42 254.9 373.8 254.55C374.02 254.65 374.23 254.76 374.45 254.86H374.49ZM321.84 272.07C321.7 275.63 323.6 277.12 327 276.07C327.86 275.8 328.8 275.53 329.48 274.98C332.62 272.39 336.13 270.08 338.68 266.98C344.45 259.98 349.73 252.58 355.2 245.34C356.22 243.99 356.02 243.31 354.39 242.77C353.77 242.56 353 242.4 352.4 242.57C350.23 243.17 347.91 243.59 345.99 244.68C337.58 249.45 330.61 255.91 324.96 263.74C323.18 266.2 321.96 268.95 321.85 272.08L321.84 272.07Z" fill="#992866"></path><path d="M923.28 273.74V267.43H1024.15V273.74H923.28Z" fill="#992866"></path><path d="M684.23 271.07C689.16 270.9 693.24 268.98 696.73 265.95C699.38 263.65 701.69 260.96 704.22 258.52C704.78 257.98 705.66 257.76 706.39 257.4C706.18 258.21 706.21 259.21 705.74 259.81C700.32 266.73 693.86 272.11 684.93 273.97C683.35 274.3 681.87 275.39 680.48 276.32C676.9 278.74 672.93 279.09 668.86 278.43C665.45 277.88 663.23 275.57 661.84 272.54C660.76 270.19 659.9 267.73 658.89 265.21C658.24 265.69 657.6 266.23 656.9 266.65C656.62 266.82 656.05 266.91 655.86 266.74C655.63 266.54 655.49 265.98 655.6 265.68C655.81 265.12 656.17 264.57 656.58 264.12C660.09 260.33 663.46 256.39 667.18 252.82C674.48 245.82 681.95 238.99 689.44 232.18C690.27 231.42 691.62 230.89 692.74 230.87C695.04 230.83 696.16 232.72 695.33 234.88C695.09 235.5 694.75 236.15 694.3 236.63C691.21 239.89 689.79 243.94 688.9 248.2C687.32 255.75 685.8 263.31 684.22 271.05L684.23 271.07ZM685.45 239.56C684.52 240.26 683.94 240.62 683.46 241.07C678.24 246.04 673 251 667.84 256.02C666.79 257.04 665.99 258.31 665.13 259.51C663.7 261.49 663.54 263.7 664.11 266.01C665.03 269.78 668.28 272.33 672.6 272.66C676.31 272.94 678.57 271.38 680.1 267.34C683.41 258.54 684.3 249.28 685.46 239.56H685.45Z" fill="#992866"></path><path d="M477.29 240.94C474.88 241.41 472.48 241.98 470.05 242.34C462.74 243.42 455.42 244.371 448.12 245.531C447.04 245.701 445.86 246.55 445.12 247.42C440.92 252.34 437.88 258.001 435.11 263.801C434.16 265.791 433.29 267.86 432.73 269.98C431.51 274.58 434.2 277.38 438.97 276.68C447.18 275.48 454.12 271.68 460.2 266.21C462.65 264.01 464.94 261.63 467.32 259.35C467.95 258.75 468.65 258.22 469.32 257.65C469.52 257.79 469.72 257.931 469.91 258.071C469.42 258.981 469.06 260.001 468.42 260.781C464.13 266.001 459.18 270.48 453.34 273.94C448.53 276.79 443.41 278.73 437.8 279.1C436.24 279.2 434.6 279.07 433.08 278.71C430.13 278 428.55 275.76 428.25 272.44C427.96 269.22 428.76 266.21 430.09 263.36C432.6 257.96 435.28 252.631 437.89 247.281C438.16 246.731 438.45 246.18 438.8 245.5C437.76 245.5 436.84 245.53 435.91 245.5C433.86 245.42 432.77 244.54 432.7 242.94C432.64 241.59 433.79 240.3 435.55 240.06C437.06 239.86 438.64 239.7 440.14 239.89C442.66 240.21 444.21 239.22 445.61 237.18C447.17 234.9 449.02 232.78 450.96 230.79C452.88 228.81 455.16 229.11 457 231.2C457.75 232.05 457.64 232.88 457.06 233.67C455.75 235.46 454.38 237.19 453.03 238.95C452.76 239.3 452.48 239.65 452.04 240.2H477.12C477.18 240.44 477.23 240.69 477.29 240.93V240.94Z" fill="#992866"></path><path d="M602.05 278.68C601.66 278.63 600.91 278.6 600.19 278.45C594.45 277.25 592.51 273.83 593.88 267.48C594.84 263.04 596.81 259.02 598.97 255.09C604.83 244.44 610.83 233.86 618.85 224.62C620.32 222.93 622.1 221.42 623.99 220.23C624.92 219.64 626.56 219.6 627.65 219.98C630.01 220.79 630.22 222.03 628.74 224.01C619.99 235.77 610.94 247.31 603.37 259.89C601.57 262.88 600.14 266.12 598.88 269.38C598.13 271.32 597.85 273.69 599.66 275.28C601.39 276.8 603.55 276.15 605.5 275.48C610.66 273.69 614.87 270.41 618.75 266.71C620.93 264.64 622.85 262.3 624.99 260.18C625.54 259.63 626.47 259.47 627.22 259.13C626.94 259.87 626.82 260.74 626.35 261.32C621.77 266.84 616.96 272.13 610.88 276.1C608.14 277.89 605.34 278.77 602.04 278.69L602.05 278.68Z" fill="#992866"></path><path d="M287.75 280.25C282.73 279.92 278.59 277.05 277.81 272.97C277.24 269.97 277.82 267.02 279.16 264.35C283.9 254.9 290.81 247.45 300.31 242.68C302.36 241.65 304.87 241.21 307.19 241.13C311.37 241 313.9 244.43 312.5 248.35C311.76 250.42 310.54 252.54 308.97 254.04C303.28 259.47 296.58 263.18 288.79 264.74C288.13 264.87 287.38 265.05 286.77 264.87C284.9 264.34 284.33 265.47 283.98 266.88C283.64 268.25 283.26 269.64 283.2 271.04C282.99 275.96 286.02 278.42 290.84 277.35C295.12 276.41 298.65 274.03 302.03 271.41C307.43 267.21 312.46 262.62 316.68 257.21C316.75 257.12 316.8 256.99 316.89 256.95C317.55 256.66 318.22 256.38 318.89 256.1C318.77 256.77 318.89 257.66 318.51 258.08C315.1 261.87 311.81 265.81 308.07 269.26C303.65 273.35 298.77 276.94 292.98 278.97C291.29 279.56 289.48 279.82 287.73 280.23L287.75 280.25ZM286.9 261.71C286.96 261.89 287.02 262.07 287.09 262.24C288.19 262.16 289.32 262.21 290.38 261.97C297.29 260.39 302.73 256.41 307.33 251.21C308.39 250.01 309.19 248.5 309.77 247C310.33 245.53 309.67 244.59 308.1 244.62C306.73 244.65 305.22 244.91 304.03 245.55C296.83 249.35 291.42 255.07 286.91 261.7L286.9 261.71Z" fill="#992866"></path><path d="M502.02 258.82C501.84 259.36 501.79 260.01 501.45 260.42C495.7 267.26 489.87 274.07 481.71 278.16C479.61 279.22 477.04 279.6 474.65 279.78C471.15 280.04 468.83 277.58 468.48 273.91C468.17 270.59 468.93 267.49 470.2 264.46C472.99 257.76 476.56 251.53 481.39 246.08C482.13 245.24 483.07 244.56 483.96 243.86C485.8 242.42 487.65 242.74 489.48 243.92C490.9 244.84 490.99 245.45 489.98 246.79C485.61 252.59 481.13 258.33 476.93 264.26C475.35 266.49 474.38 269.17 473.26 271.7C472.93 272.44 472.93 273.37 472.97 274.2C473.09 276.72 474.66 277.89 477.12 277.25C480.94 276.25 484.2 274.09 487.15 271.62C491.06 268.35 494.66 264.71 498.39 261.23C499.41 260.28 500.43 259.32 501.45 258.37C501.64 258.52 501.83 258.67 502.02 258.82Z" fill="#992866"></path><path d="M790.96 258.82C790.77 259.36 790.73 260.02 790.38 260.43C784.63 267.26 778.76 274 770.67 278.22C768.07 279.57 765.19 280.12 762.24 279.64C759.67 279.22 757.87 277.7 757.69 275.07C757.52 272.62 757.4 270 758.09 267.7C760.54 259.55 764.88 252.38 770.44 245.96C771.14 245.16 772.05 244.53 772.9 243.87C774.75 242.43 776.6 242.76 778.42 243.93C779.8 244.82 779.9 245.51 778.91 246.81C775.04 251.86 771.04 256.82 767.37 262.01C765.39 264.81 763.9 267.97 762.4 271.08C761.9 272.13 761.86 273.53 762 274.72C762.26 276.92 763.79 278.01 765.88 277.26C768.36 276.36 770.81 275.21 773.04 273.79C778.58 270.25 783.45 265.92 787.69 260.87C788.46 259.95 789.46 259.23 790.36 258.42C790.56 258.56 790.76 258.69 790.97 258.83L790.96 258.82Z" fill="#992866"></path><path d="M496.55 237.69C494.15 237.61 492.66 236.71 491.76 234.94C490.74 232.93 491.81 230.65 494.05 230.48C495.61 230.36 497.35 230.59 498.75 231.23C499.69 231.66 500.72 233.08 500.71 234.05C500.71 235.02 499.58 236.12 498.7 236.88C498.07 237.43 497.05 237.51 496.55 237.68V237.69Z" fill="#992866"></path><path d="M785.53 237.68C783.26 237.63 781.82 236.84 780.87 235.26C779.57 233.1 780.62 230.65 783.12 230.45C784.62 230.33 786.32 230.57 787.66 231.21C788.59 231.65 789.61 233.05 789.61 234.02C789.61 234.98 788.52 236.1 787.66 236.87C787.04 237.42 786.01 237.51 785.53 237.68Z" fill="#992866"></path></svg>